<svg xmlns="http://www.w3.org/2000/svg" xmlns:xlink="http://www.w3.org/1999/xlink" width="181" zoomAndPan="magnify" viewBox="0 0 135.75 135.749996" height="181" preserveAspectRatio="xMidYMid meet" version="1.0"><defs><clipPath id="c19382e70c"><path d="M 62 50.058594 L 65 50.058594 L 65 56 L 62 56 Z M 62 50.058594 " clip-rule="nonzero"/></clipPath><clipPath id="9ecd86f757"><path d="M 50.375 57 L 56 57 L 56 60 L 50.375 60 Z M 50.375 57 " clip-rule="nonzero"/></clipPath><clipPath id="9ce9abebe2"><path d="M 58 57 L 85.625 57 L 85.625 86 L 58 86 Z M 58 57 " clip-rule="nonzero"/></clipPath></defs><path fill="#000000" d="M 69.828125 54.8125 C 69.679688 54.824219 69.539062 54.867188 69.410156 54.9375 L 66.65625 56.527344 C 66.191406 56.773438 66.03125 57.355469 66.289062 57.808594 C 66.546875 58.265625 67.128906 58.417969 67.578125 58.144531 L 70.339844 56.558594 C 71.21875 56.078125 70.824219 54.738281 69.828125 54.8125 Z M 69.828125 54.8125 " fill-opacity="1" fill-rule="nonzero"/><path fill="#000000" d="M 55.355469 63.121094 C 55.210938 63.132812 55.070312 63.179688 54.945312 63.253906 L 52.183594 64.835938 C 51.726562 65.085938 51.558594 65.664062 51.824219 66.121094 C 52.082031 66.574219 52.664062 66.726562 53.109375 66.457031 L 55.871094 64.875 C 56.75 64.390625 56.355469 63.050781 55.355469 63.121094 Z M 55.355469 63.121094 " fill-opacity="1" fill-rule="nonzero"/><path fill="#000000" d="M 56.246094 51.179688 C 55.535156 51.203125 55.113281 51.988281 55.480469 52.597656 L 57.074219 55.34375 C 57.332031 55.789062 57.902344 55.941406 58.347656 55.683594 C 58.792969 55.421875 58.941406 54.847656 58.683594 54.402344 L 57.09375 51.660156 C 56.921875 51.351562 56.59375 51.167969 56.246094 51.179688 Z M 56.246094 51.179688 " fill-opacity="1" fill-rule="nonzero"/><g clip-path="url(#c19382e70c)"><path fill="#000000" d="M 63.804688 50.175781 C 63.398438 50.195312 63.050781 50.476562 62.949219 50.871094 L 62.121094 53.949219 C 61.96875 54.449219 62.265625 54.980469 62.773438 55.117188 C 63.277344 55.253906 63.796875 54.945312 63.917969 54.433594 L 64.742188 51.363281 C 64.917969 50.746094 64.441406 50.144531 63.804688 50.175781 Z M 63.804688 50.175781 " fill-opacity="1" fill-rule="nonzero"/></g><g clip-path="url(#9ecd86f757)"><path fill="#000000" d="M 51.621094 57.207031 C 50.539062 57.242188 50.375 58.78125 51.421875 59.046875 L 54.496094 59.863281 C 55.003906 60.023438 55.539062 59.730469 55.675781 59.214844 C 55.816406 58.699219 55.492188 58.175781 54.972656 58.058594 L 51.894531 57.242188 C 51.804688 57.21875 51.710938 57.207031 51.621094 57.207031 Z M 51.621094 57.207031 " fill-opacity="1" fill-rule="nonzero"/></g><g clip-path="url(#9ce9abebe2)"><path fill="#000000" d="M 60.757812 59.757812 C 61.421875 59.390625 62.148438 59.523438 62.445312 60.0625 L 68.535156 71.140625 C 69.046875 72.1875 70.59375 71.332031 69.984375 70.34375 L 68.875 68.320312 C 68.113281 66.933594 70.507812 65.761719 71.203125 67.03125 L 72.078125 68.621094 C 72.585938 69.667969 74.136719 68.8125 73.527344 67.824219 L 73.058594 66.972656 C 72.890625 66.664062 72.902344 66.257812 73.164062 65.863281 C 73.429688 65.46875 73.914062 65.199219 74.390625 65.183594 C 74.863281 65.167969 75.214844 65.378906 75.378906 65.675781 L 75.988281 66.785156 C 76.519531 67.753906 77.972656 66.949219 77.441406 65.976562 L 77.207031 65.5625 C 77.074219 65.316406 77 65.074219 77.109375 64.804688 C 77.265625 64.441406 77.714844 64.191406 78.109375 64.171875 C 78.5 64.160156 78.707031 64.234375 78.917969 64.601562 C 79.90625 66.316406 81.777344 69.800781 81.777344 69.800781 C 83.332031 72.65625 83.867188 75.195312 83.414062 77.3125 C 82.964844 79.425781 81.550781 81.226562 79.160156 82.542969 C 76.773438 83.855469 75.097656 84.210938 73.5625 84.035156 C 72.027344 83.855469 70.585938 83.140625 69.089844 81.976562 L 60.421875 75.222656 C 59.972656 74.871094 59.816406 74.492188 60.492188 74.0625 C 61.203125 73.609375 62.136719 74.0625 62.8125 74.394531 C 62.832031 74.40625 66.683594 76.4375 66.683594 76.4375 C 67.40625 76.796875 68.171875 76.007812 67.78125 75.296875 L 60.117188 61.351562 C 59.71875 60.628906 60.164062 60.085938 60.757812 59.757812 Z M 59.957031 58.300781 C 59.519531 58.539062 59.140625 58.882812 58.851562 59.3125 C 58.277344 60.164062 58.179688 61.261719 58.667969 62.152344 L 65.03125 73.71875 L 64.039062 73.210938 C 63.433594 72.863281 62.035156 72.269531 61.1875 72.257812 C 60.3125 72.261719 59.535156 72.585938 58.996094 73.074219 C 58.140625 73.851562 58.019531 74.65625 58.53125 75.585938 C 58.914062 76.277344 59.574219 76.695312 60.078125 77.089844 L 68.082031 83.292969 C 69.71875 84.5625 71.445312 85.464844 73.371094 85.6875 C 75.292969 85.90625 77.363281 85.425781 79.621094 84.140625 C 82.628906 82.527344 84.46875 80.292969 85.03125 77.660156 C 85.597656 75.023438 84.902344 72.082031 83.222656 68.996094 L 80.367188 63.800781 C 79.917969 62.980469 79.003906 62.496094 78.070312 62.574219 C 76.703125 62.683594 76.03125 63.238281 75.628906 64.21875 C 74.957031 63.550781 74.125 63.507812 73.25 63.804688 C 72.429688 64.082031 72.023438 64.59375 71.625 65.21875 C 71.1875 64.976562 70.679688 64.855469 70.160156 64.867188 C 69.175781 64.898438 68.269531 65.382812 67.691406 66.171875 L 63.890625 59.257812 C 63.402344 58.367188 62.425781 57.871094 61.398438 57.902344 C 60.886719 57.914062 60.394531 58.058594 59.957031 58.300781 Z M 59.957031 58.300781 " fill-opacity="1" fill-rule="nonzero"/></g></svg>