<svg xmlns="http://www.w3.org/2000/svg" xmlns:xlink="http://www.w3.org/1999/xlink" width="181" zoomAndPan="magnify" viewBox="0 0 135.75 135.749996" height="181" preserveAspectRatio="xMidYMid meet" version="1.0"><defs><clipPath id="0317af6e13"><path d="M 50.359375 72 L 85.609375 72 L 85.609375 82.789062 L 50.359375 82.789062 Z M 50.359375 72 " clip-rule="nonzero"/></clipPath><clipPath id="05559d3b06"><path d="M 59 53.539062 L 77 53.539062 L 77 64 L 59 64 Z M 59 53.539062 " clip-rule="nonzero"/></clipPath><clipPath id="c255b32034"><path d="M 66 53.539062 L 70 53.539062 L 70 77 L 66 77 Z M 66 53.539062 " clip-rule="nonzero"/></clipPath></defs><g clip-path="url(#0317af6e13)"><path fill="#000000" d="M 84.179688 82.734375 L 51.789062 82.734375 C 51.621094 82.734375 51.464844 82.703125 51.3125 82.636719 C 51.160156 82.574219 51.023438 82.484375 50.90625 82.363281 C 50.789062 82.246094 50.699219 82.109375 50.636719 81.957031 C 50.574219 81.800781 50.542969 81.640625 50.542969 81.472656 L 50.542969 74.1875 C 50.542969 74.019531 50.574219 73.859375 50.636719 73.703125 C 50.699219 73.550781 50.789062 73.414062 50.90625 73.296875 C 51.023438 73.179688 51.160156 73.085938 51.3125 73.023438 C 51.464844 72.957031 51.621094 72.925781 51.789062 72.925781 C 51.953125 72.925781 52.113281 72.957031 52.265625 73.023438 C 52.417969 73.085938 52.550781 73.179688 52.667969 73.296875 C 52.785156 73.414062 52.875 73.550781 52.9375 73.703125 C 53.003906 73.859375 53.035156 74.019531 53.035156 74.1875 L 53.035156 80.210938 L 82.933594 80.210938 L 82.933594 74.1875 C 82.933594 74.019531 82.964844 73.859375 83.027344 73.703125 C 83.09375 73.550781 83.183594 73.414062 83.296875 73.296875 C 83.414062 73.179688 83.550781 73.085938 83.703125 73.023438 C 83.855469 72.957031 84.015625 72.925781 84.179688 72.925781 C 84.34375 72.925781 84.503906 72.957031 84.65625 73.023438 C 84.808594 73.085938 84.945312 73.179688 85.0625 73.296875 C 85.175781 73.414062 85.265625 73.550781 85.332031 73.703125 C 85.394531 73.859375 85.425781 74.019531 85.425781 74.1875 L 85.425781 81.472656 C 85.425781 81.640625 85.394531 81.800781 85.332031 81.957031 C 85.265625 82.109375 85.175781 82.246094 85.0625 82.363281 C 84.945312 82.484375 84.808594 82.574219 84.65625 82.636719 C 84.503906 82.703125 84.34375 82.734375 84.179688 82.734375 Z M 84.179688 82.734375 " fill-opacity="1" fill-rule="nonzero"/></g><g clip-path="url(#05559d3b06)"><path fill="#000000" d="M 75.183594 63.402344 C 74.839844 63.402344 74.542969 63.28125 74.300781 63.035156 L 67.984375 56.640625 L 61.667969 63.035156 C 61.546875 63.148438 61.414062 63.238281 61.261719 63.296875 C 61.109375 63.359375 60.953125 63.390625 60.789062 63.386719 C 60.625 63.386719 60.46875 63.351562 60.320312 63.289062 C 60.167969 63.226562 60.035156 63.136719 59.917969 63.019531 C 59.804688 62.902344 59.714844 62.765625 59.652344 62.613281 C 59.589844 62.460938 59.554688 62.304688 59.554688 62.136719 C 59.554688 61.972656 59.582031 61.8125 59.644531 61.660156 C 59.703125 61.503906 59.789062 61.371094 59.90625 61.25 L 67.101562 53.964844 C 67.222656 53.851562 67.359375 53.761719 67.507812 53.703125 C 67.660156 53.640625 67.820312 53.609375 67.984375 53.609375 C 68.148438 53.609375 68.304688 53.640625 68.457031 53.703125 C 68.609375 53.761719 68.746094 53.851562 68.863281 53.964844 L 76.0625 61.25 C 76.242188 61.429688 76.355469 61.644531 76.402344 61.894531 C 76.453125 62.144531 76.429688 62.390625 76.332031 62.625 C 76.238281 62.859375 76.082031 63.046875 75.875 63.191406 C 75.664062 63.332031 75.433594 63.402344 75.183594 63.402344 Z M 75.183594 63.402344 " fill-opacity="1" fill-rule="nonzero"/></g><g clip-path="url(#c255b32034)"><path fill="#000000" d="M 67.984375 76.148438 C 67.820312 76.148438 67.660156 76.117188 67.507812 76.054688 C 67.355469 75.988281 67.21875 75.898438 67.101562 75.78125 C 66.984375 75.660156 66.894531 75.527344 66.832031 75.371094 C 66.769531 75.214844 66.738281 75.054688 66.738281 74.886719 L 66.738281 54.855469 C 66.738281 54.6875 66.769531 54.527344 66.832031 54.375 C 66.894531 54.21875 66.984375 54.082031 67.101562 53.964844 C 67.21875 53.847656 67.355469 53.753906 67.507812 53.691406 C 67.660156 53.628906 67.820312 53.59375 67.984375 53.59375 C 68.148438 53.59375 68.308594 53.628906 68.460938 53.691406 C 68.613281 53.753906 68.746094 53.847656 68.863281 53.964844 C 68.980469 54.082031 69.070312 54.21875 69.132812 54.375 C 69.199219 54.527344 69.230469 54.6875 69.230469 54.855469 L 69.230469 74.886719 C 69.230469 75.054688 69.199219 75.214844 69.132812 75.371094 C 69.070312 75.527344 68.980469 75.660156 68.863281 75.78125 C 68.746094 75.898438 68.613281 75.988281 68.460938 76.054688 C 68.308594 76.117188 68.148438 76.148438 67.984375 76.148438 Z M 67.984375 76.148438 " fill-opacity="1" fill-rule="nonzero"/></g></svg>