<svg xmlns="http://www.w3.org/2000/svg" xmlns:xlink="http://www.w3.org/1999/xlink" width="181" zoomAndPan="magnify" viewBox="0 0 135.75 135.749996" height="181" preserveAspectRatio="xMidYMid meet" version="1.0"><defs><clipPath id="b1e137482b"><path d="M 50.324219 52.335938 L 85.574219 52.335938 L 85.574219 83.835938 L 50.324219 83.835938 Z M 50.324219 52.335938 " clip-rule="nonzero"/></clipPath></defs><g clip-path="url(#b1e137482b)"><path fill="#000000" d="M 67.949219 83.832031 L 67.574219 83.574219 C 67.53125 83.546875 63.238281 80.589844 59.007812 76.5 C 56.511719 74.082031 54.515625 71.75 53.078125 69.5625 C 51.253906 66.761719 50.324219 64.167969 50.324219 61.863281 C 50.324219 56.617188 54.558594 52.34375 59.761719 52.34375 C 61.695312 52.34375 63.5625 52.941406 65.15625 54.078125 C 66.3125 54.902344 67.257812 55.953125 67.949219 57.164062 C 68.636719 55.949219 69.582031 54.894531 70.738281 54.078125 C 72.332031 52.941406 74.199219 52.34375 76.132812 52.34375 C 81.335938 52.34375 85.574219 56.617188 85.574219 61.863281 L 85.574219 61.871094 C 85.550781 64.160156 84.613281 66.734375 82.78125 69.527344 C 81.34375 71.714844 79.355469 74.046875 76.859375 76.472656 C 72.636719 80.574219 68.363281 83.546875 68.320312 83.574219 Z M 59.761719 53.671875 C 55.285156 53.671875 51.640625 57.347656 51.640625 61.863281 C 51.640625 63.902344 52.492188 66.242188 54.179688 68.816406 C 55.554688 70.921875 57.484375 73.179688 59.910156 75.527344 C 63.34375 78.847656 66.828125 81.414062 67.949219 82.210938 C 69.070312 81.40625 72.53125 78.824219 75.957031 75.5 C 78.375 73.144531 80.300781 70.890625 81.679688 68.789062 C 83.367188 66.214844 84.234375 63.890625 84.246094 61.863281 C 84.246094 57.347656 80.601562 53.679688 76.125 53.679688 C 72.804688 53.679688 69.765625 55.796875 68.554688 58.957031 L 67.941406 60.5625 L 67.335938 58.957031 C 66.121094 55.796875 63.082031 53.671875 59.761719 53.671875 Z M 59.761719 53.671875 " fill-opacity="1" fill-rule="nonzero"/></g></svg>