<svg xmlns="http://www.w3.org/2000/svg" xmlns:xlink="http://www.w3.org/1999/xlink" width="181" zoomAndPan="magnify" viewBox="0 0 135.75 135.749996" height="181" preserveAspectRatio="xMidYMid meet" version="1.0"><defs><clipPath id="ea953a9536"><path d="M 50.203125 53.164062 L 86.195312 53.164062 L 86.195312 83.078125 L 50.203125 83.078125 Z M 50.203125 53.164062 " clip-rule="nonzero"/></clipPath></defs><g clip-path="url(#ea953a9536)"><path fill="#100f0d" d="M 81.429688 55.921875 C 82.210938 56.101562 83.011719 56.195312 83.773438 56.429688 C 84.539062 56.660156 85.289062 57.046875 85.769531 57.683594 C 86.027344 58.019531 86.199219 58.429688 86.195312 58.851562 C 86.1875 59.574219 85.648438 60.214844 84.996094 60.542969 C 84.347656 60.871094 83.601562 60.945312 82.875 61 C 80.453125 61.175781 78.027344 61.148438 75.601562 61.101562 C 74.898438 61.089844 73.832031 61.222656 73.355469 60.589844 C 73.164062 60.335938 72.996094 60.0625 72.847656 59.78125 C 72.722656 59.53125 72.800781 59.496094 72.488281 59.527344 C 69.847656 59.769531 67.050781 60.203125 64.675781 61.445312 C 63.632812 62 62.410156 62.972656 62.515625 64.484375 C 62.632812 66.152344 64.359375 67.980469 66.621094 68.828125 C 67.5625 69.167969 69.191406 69.300781 70.917969 69.441406 C 74.953125 69.773438 79.976562 70.1875 80.835938 73.710938 L 80.835938 73.714844 C 81.21875 75.339844 80.898438 76.828125 79.890625 78.140625 C 77.761719 80.90625 73.132812 81.992188 70.726562 82.203125 C 68.308594 82.460938 65.652344 82.324219 63.082031 82.183594 C 59.0625 81.972656 54.90625 81.75 51.507812 83.015625 C 51.394531 83.058594 51.273438 83.078125 51.160156 83.078125 C 50.777344 83.078125 50.417969 82.859375 50.269531 82.503906 C 50.078125 82.039062 50.320312 81.511719 50.808594 81.328125 C 54.597656 79.921875 58.964844 80.152344 63.191406 80.375 C 65.796875 80.515625 68.261719 80.644531 70.519531 80.402344 L 70.542969 80.402344 C 73.246094 80.167969 76.84375 79.027344 78.347656 77.070312 C 79.027344 76.1875 79.230469 75.222656 78.972656 74.113281 C 78.667969 72.863281 77.285156 72.328125 76.273438 72.035156 C 74.671875 71.570312 72.679688 71.40625 70.753906 71.246094 C 68.886719 71.09375 67.125 70.949219 65.9375 70.519531 L 65.925781 70.515625 C 62.914062 69.390625 60.78125 67.011719 60.609375 64.605469 C 60.476562 62.691406 61.589844 61.003906 63.75 59.863281 C 66.203125 58.578125 69.613281 57.921875 72.804688 57.675781 L 72.804688 57.5 C 72.804688 56.765625 73.308594 56.164062 74 55.964844 C 74.523438 55.816406 75.070312 55.847656 75.605469 55.878906 C 76.085938 55.90625 76.683594 55.992188 77.148438 55.824219 C 76.734375 55.476562 76.09375 55.253906 75.601562 55.03125 C 75.078125 54.792969 74.542969 54.578125 74 54.390625 C 74.171875 53.980469 74.347656 53.574219 74.519531 53.167969 C 76.625 53.992188 78.617188 55.148438 80.789062 55.757812 C 81 55.820312 81.214844 55.875 81.429688 55.921875 " fill-opacity="1" fill-rule="nonzero"/></g></svg>